<?xml version="1.0" encoding="UTF-8"?>
<svg version="1.1" xmlns="http://www.w3.org/2000/svg" width="512" height="512">
<path d="M0 0 C1.66453543 -0.00573832 1.66453543 -0.00573832 3.36269784 -0.01159257 C7.04704416 -0.0218356 10.73123211 -0.01794701 14.41558838 -0.01396179 C17.07117216 -0.01831312 19.72674469 -0.02343398 22.38232422 -0.02944946 C28.82704722 -0.04214794 35.27172846 -0.04399619 41.71646187 -0.0416492 C46.9601314 -0.03986021 52.20378833 -0.04162809 57.44745636 -0.04587364 C58.57043558 -0.04676643 58.57043558 -0.04676643 59.71610124 -0.04767724 C61.23741514 -0.0488891 62.75872903 -0.05010324 64.28004292 -0.05131962 C78.52252089 -0.06217675 92.76497513 -0.06004151 107.00745443 -0.05393478 C120.00656366 -0.04876887 133.00559788 -0.0600157 146.00469229 -0.07903299 C159.38450335 -0.09845565 172.764279 -0.10665955 186.14410424 -0.10290974 C193.642845 -0.10100419 201.14152197 -0.10342174 208.64025116 -0.11762428 C215.0251211 -0.12959578 221.40988798 -0.13087897 227.79475948 -0.11883412 C231.0454297 -0.11298516 234.29587515 -0.11339214 237.54653931 -0.12383652 C268.06818686 -0.21478117 294.11059583 5.33763063 317.33843994 26.26069641 C318.11832275 26.95807922 318.89820557 27.65546204 319.70172119 28.37397766 C336.88294829 44.6056378 347.99211061 68.60689362 349.52572501 92.13380384 C349.59589449 95.0649397 349.61008067 97.99030563 349.59913635 100.92225647 C349.6029619 102.03194676 349.60678745 103.14163704 349.61072892 104.28495431 C349.62097195 107.96930063 349.61708336 111.65348857 349.61309814 115.33784485 C349.61744947 117.99342863 349.62257033 120.64900116 349.62858582 123.30458069 C349.64128429 129.74930369 349.64313254 136.19398493 349.64078555 142.63871834 C349.63899656 147.88238786 349.64076445 153.1260448 349.64500999 158.36971283 C349.64560518 159.11836564 349.64620037 159.86701845 349.6468136 160.63835771 C349.64802546 162.15967161 349.64923959 163.6809855 349.65045597 165.20229939 C349.66131311 179.44477736 349.65917786 193.6872316 349.65307113 207.92971089 C349.64790522 220.92882013 349.65915205 233.92785435 349.67816935 246.92694876 C349.697592 260.30675982 349.7057959 273.68653547 349.7020461 287.06636071 C349.70014055 294.56510147 349.70255809 302.06377844 349.71676064 309.56250763 C349.72873213 315.94737757 349.73001532 322.33214445 349.71797047 328.71701595 C349.71212151 331.96768617 349.71252849 335.21813162 349.72297287 338.46879578 C349.81391752 368.99044333 344.26150572 395.0328523 323.33843994 418.26069641 C322.64105713 419.04057922 321.94367432 419.82046204 321.22515869 420.62397766 C304.99349855 437.80520476 280.99224274 448.91436708 257.46533251 450.44798148 C254.53419665 450.51815096 251.60883072 450.53233714 248.67687988 450.52139282 C247.5671896 450.52521837 246.45749931 450.52904392 245.31418204 450.53298539 C241.62983572 450.54322842 237.94564778 450.53933983 234.2612915 450.53535461 C231.60570772 450.53970594 228.95013519 450.5448268 226.29455566 450.55084229 C219.84983266 450.56354076 213.40515142 450.56538901 206.96041802 450.56304202 C201.71674849 450.56125303 196.47309155 450.56302092 191.22942352 450.56726646 C190.10644431 450.56815925 190.10644431 450.56815925 188.96077864 450.56907007 C187.43946475 450.57028193 185.91815086 450.57149606 184.39683697 450.57271244 C170.154359 450.58356958 155.91190475 450.58143433 141.66942546 450.5753276 C128.67031622 450.57016169 115.671282 450.58140852 102.6721876 450.60042582 C89.29237653 450.61984847 75.91260088 450.62805237 62.53277564 450.62430257 C55.03403488 450.62239701 47.53535791 450.62481456 40.03662872 450.63901711 C33.65175879 450.6509886 27.26699191 450.65227179 20.8821204 450.64022694 C17.63145018 450.63437798 14.38100473 450.63478496 11.13034058 450.64522934 C-19.39130698 450.73617399 -45.43371595 445.18376219 -68.66156006 424.26069641 C-69.83138428 423.21462219 -69.83138428 423.21462219 -71.02484131 422.14741516 C-88.20606841 405.91575502 -99.31523073 381.91449921 -100.84884512 358.38758898 C-100.91901461 355.45645312 -100.93320079 352.53108719 -100.92225647 349.59913635 C-100.92608202 348.48944607 -100.92990756 347.37975578 -100.93384904 346.23643851 C-100.94409207 342.55209219 -100.94020348 338.86790425 -100.93621826 335.18354797 C-100.94056959 332.52796419 -100.94569045 329.87239166 -100.95170593 327.21681213 C-100.96440441 320.77208913 -100.96625266 314.32740789 -100.96390567 307.88267449 C-100.96211668 302.63900496 -100.96388456 297.39534802 -100.96813011 292.15167999 C-100.9687253 291.40302718 -100.96932049 290.65437437 -100.96993371 289.88303511 C-100.97114557 288.36172122 -100.97235971 286.84040733 -100.97357609 285.31909344 C-100.98443322 271.07661547 -100.98229798 256.83416122 -100.97619125 242.59168193 C-100.97102534 229.59257269 -100.98227217 216.59353847 -101.00128946 203.59444407 C-101.02071212 190.214633 -101.02891602 176.83485735 -101.02516621 163.45503211 C-101.02326066 155.95629135 -101.02567821 148.45761438 -101.03988075 140.95888519 C-101.05185225 134.57401526 -101.05313544 128.18924838 -101.04109059 121.80437687 C-101.03524163 118.55370665 -101.03564861 115.3032612 -101.04609299 112.05259705 C-101.13703764 81.53094949 -95.58462584 55.48854052 -74.66156006 32.26069641 C-73.96417725 31.4808136 -73.26679443 30.70093079 -72.54827881 29.89741516 C-53.84286592 10.09771852 -26.9191031 -0.10048299 0 0 Z " fill="#4488C8" transform="translate(131.66156005859375,30.739303588867188)"/>
<path d="M0 0 C0.85353058 0.00045319 1.70706116 0.00090637 2.5864563 0.00137329 C3.9278492 -0.00366463 3.9278492 -0.00366463 5.29634094 -0.00880432 C8.26814137 -0.01834461 11.23988563 -0.02025896 14.21170044 -0.02133179 C16.26814294 -0.02454219 18.32458521 -0.0279061 20.38102722 -0.03141785 C24.69788137 -0.0374168 29.01471547 -0.03925696 33.33157349 -0.03866577 C38.87475999 -0.0385641 44.41781854 -0.05221837 49.96097469 -0.06943798 C54.20992122 -0.08053314 58.45883657 -0.08258575 62.7077961 -0.08205605 C64.7520142 -0.08323984 66.79623301 -0.08768382 68.84043694 -0.09538841 C71.69467107 -0.10513847 74.5486243 -0.10233011 77.40286255 -0.09628296 C78.2543689 -0.10190247 79.10587524 -0.10752197 79.98318481 -0.11331177 C85.8310414 -0.08167833 85.8310414 -0.08167833 88.05935669 2.14663696 C88.32106972 3.98570442 88.32106972 3.98570442 88.33782959 6.25946045 C88.34899307 7.12045349 88.36015656 7.98144653 88.37165833 8.86853027 C88.37381851 9.81511505 88.3759787 10.76169983 88.37820435 11.73696899 C88.38824997 12.73212524 88.39829559 13.72728149 88.40864563 14.75259399 C88.43962112 18.05320642 88.45655263 21.35373722 88.47341919 24.65444946 C88.49211928 26.93846343 88.51169181 29.22247042 88.53210449 31.50646973 C88.5835541 37.52670175 88.62311105 43.5469562 88.6602478 49.56729126 C88.7002072 55.70707811 88.75133622 61.84677063 88.80154419 67.98648071 C88.89845531 80.03979998 88.98281132 92.09317237 89.05935669 104.14663696 C95.13978634 103.43024728 95.13978634 103.43024728 100.05935669 100.08413696 C119.73675548 83.79245756 146.17860199 79.21523381 171.05935669 81.14663696 C191.74616549 83.5997561 210.45456639 91.9457032 224.05935669 108.14663696 C241.79785102 132.81372944 241.65719112 159.96256314 241.49786401 188.96427774 C241.47634503 193.61887073 241.47715441 198.27346578 241.47517395 202.92810059 C241.4687647 210.71960742 241.44764651 218.51095501 241.41604614 226.30239868 C241.3754978 236.31344154 241.35831436 246.32438184 241.34873676 256.3354969 C241.34045635 264.95723985 241.32323328 273.57896103 241.30369925 282.20068502 C241.29964842 284.04940778 241.29590915 285.89813125 241.29247689 287.74685526 C241.28272157 292.99982416 241.26828572 298.25273107 241.24563789 303.50566101 C241.23949771 305.09845798 241.23505742 306.69126249 241.23239517 308.28406906 C241.2284365 310.44819756 241.21834194 312.61220841 241.20652771 314.77630615 C241.20225423 315.98959658 241.19798075 317.202887 241.19357777 318.4529438 C241.05935669 321.14663696 241.05935669 321.14663696 240.05935669 322.14663696 C237.17329653 322.24720388 234.31113094 322.28279071 231.42459106 322.27603149 C230.51896927 322.27778381 229.61334747 322.27953613 228.68028259 322.28134155 C225.67120476 322.2857615 222.66218517 322.28282158 219.65310669 322.27944946 C217.57184844 322.28012246 215.49059026 322.28109245 213.40933228 322.28234863 C209.04120131 322.2838258 204.67309076 322.28167045 200.30496216 322.27700806 C194.69221116 322.27131076 189.07950797 322.27458967 183.46675873 322.28058052 C179.1672428 322.28418563 174.86773831 322.28304778 170.56822205 322.28045273 C168.49806208 322.27978332 166.42790109 322.28061236 164.35774231 322.28293228 C161.46984083 322.28545798 158.58201791 322.28161938 155.69412231 322.27603149 C154.82966995 322.27805573 153.96521759 322.28007996 153.0745697 322.28216553 C147.17361906 322.26089934 147.17361906 322.26089934 146.05935669 321.14663696 C145.95734155 319.37457065 145.9258186 317.59841992 145.92132568 315.82342529 C145.91587234 314.66837997 145.91041901 313.51333466 145.90480042 312.32328796 C145.90375809 311.04441208 145.90271576 309.76553619 145.90164185 308.44790649 C145.89697566 307.09616429 145.89183243 305.74442365 145.88624573 304.39268494 C145.87494252 301.47342195 145.86651872 298.55416931 145.8601265 295.63489151 C145.84945468 291.01107221 145.82920809 286.38732633 145.80700684 281.7635498 C145.74506786 268.6119832 145.69119034 255.46041912 145.6579895 242.30874634 C145.63958761 235.05126763 145.6105746 227.79391025 145.56998479 220.53652084 C145.54899265 216.69809506 145.53346881 212.85982178 145.53117752 209.0213356 C145.52901458 205.40152896 145.5129796 201.78203873 145.4867878 198.16232872 C145.47627844 196.2166713 145.48032301 194.27095186 145.48497009 192.32527161 C145.39355888 182.5748109 144.50056235 172.9139732 138.05935669 165.14663696 C131.12799292 158.74845502 124.16461868 158.6261102 115.17654419 158.83023071 C110.36864648 159.08798925 106.90829956 160.23106274 103.05935669 163.14663696 C102.00748169 163.84788696 100.95560669 164.54913696 99.87185669 165.27163696 C92.08307336 172.25614376 89.63810409 184.41536494 88.78140068 194.37947655 C88.66941276 197.7338494 88.64543726 201.07632961 88.65872192 204.43252563 C88.65174286 205.689422 88.64476379 206.94631836 88.63757324 208.24130249 C88.62453293 210.94450899 88.61667175 213.64709638 88.61810112 216.35027122 C88.62015456 220.6239993 88.60044339 224.89746804 88.57792664 229.17112732 C88.53720307 237.45588354 88.51838524 245.74061805 88.50175476 254.02545166 C88.47929663 264.61099574 88.44594264 275.19647912 88.39455563 285.78192312 C88.37462943 290.03226267 88.36505402 294.2824633 88.36360347 298.53284776 C88.36021769 301.78328932 88.34432413 305.03367626 88.33059692 308.28408813 C88.33314987 309.46271927 88.33570282 310.6413504 88.33833313 311.85569763 C88.33150513 312.92508575 88.32467712 313.99447388 88.31764221 315.0962677 C88.31600791 316.02882983 88.31437361 316.96139196 88.31268978 317.92221355 C88.05935669 320.14663696 88.05935669 320.14663696 86.05935669 322.14663696 C83.14235328 322.34017061 80.32062739 322.40881264 77.40286255 322.38955688 C76.5068483 322.39145523 75.61083405 322.39335358 74.68766785 322.39530945 C71.71642395 322.39902394 68.74542273 322.38830423 65.77420044 322.37710571 C63.71679208 322.37591428 61.65938317 322.37546067 59.60197449 322.37571716 C55.28687137 322.37415118 50.97185108 322.36585216 46.6567688 322.35244751 C41.11242157 322.33544687 35.56816537 322.3316334 30.02379513 322.33239269 C25.77488834 322.3321214 21.52600164 322.32664703 17.27710152 322.31939125 C15.23206293 322.31619865 13.18702207 322.3142358 11.14198112 322.31349754 C8.29009965 322.31134082 5.43831676 322.30261147 2.5864563 322.29190063 C1.73292572 322.29235382 0.87939514 322.29280701 0 322.29327393 C-5.82616911 322.26111116 -5.82616911 322.26111116 -6.94064331 321.14663696 C-7.03883099 319.44301078 -7.06619918 317.73527717 -7.06648445 316.02882385 C-7.0690922 314.91276292 -7.07169995 313.79670198 -7.07438672 312.64682102 C-7.07104063 310.78455828 -7.07104063 310.78455828 -7.06762695 308.88467407 C-7.06918694 307.57778846 -7.07074693 306.27090284 -7.0723542 304.92441463 C-7.07655208 301.28009236 -7.07445478 297.63579607 -7.07136798 293.99147367 C-7.06911595 290.06777992 -7.0725925 286.1440908 -7.0753479 282.22039795 C-7.07980672 274.52723931 -7.07882864 266.8340904 -7.07593526 259.14093137 C-7.07368166 252.89143878 -7.07336851 246.64194893 -7.07445908 240.39245605 C-7.07461231 239.50476467 -7.07476554 238.61707329 -7.07492342 237.70248216 C-7.07524313 235.89944943 -7.07556734 234.09641669 -7.07589601 232.29338396 C-7.07875113 215.36555307 -7.07546328 198.43772759 -7.07009564 181.50989759 C-7.06562758 166.96856061 -7.0664035 152.42723161 -7.0710144 137.88589478 C-7.07635961 121.02079544 -7.07847644 104.15570084 -7.07540214 87.29060078 C-7.07508357 85.49400648 -7.0747692 83.69741217 -7.07445908 81.90081787 C-7.0743048 81.01673829 -7.07415052 80.1326587 -7.07399157 79.22178882 C-7.07312626 72.97602375 -7.07458961 66.73026168 -7.07693863 60.48449707 C-7.07973623 52.87842486 -7.07899922 45.27236297 -7.07365789 37.66629195 C-7.07102032 33.78169419 -7.07001672 29.89711368 -7.07330704 26.01251602 C-7.07681194 21.81119545 -7.07264194 17.60991887 -7.06762695 13.40859985 C-7.06985767 12.16709136 -7.0720884 10.92558287 -7.07438672 9.6464529 C-7.07177897 8.53039197 -7.06917122 7.41433104 -7.06648445 6.26445007 C-7.0663221 5.29328782 -7.06615975 4.32212557 -7.06599247 3.32153416 C-6.80769713 -1.16007385 -3.79081457 0.0209268 0 0 Z " fill="#C7E2F5" transform="translate(138.94064331054688,94.85336303710938)"/>
<path d="M0 0 C1.66453543 -0.00573832 1.66453543 -0.00573832 3.36269784 -0.01159257 C7.04704416 -0.0218356 10.73123211 -0.01794701 14.41558838 -0.01396179 C17.07117216 -0.01831312 19.72674469 -0.02343398 22.38232422 -0.02944946 C28.82704722 -0.04214794 35.27172846 -0.04399619 41.71646187 -0.0416492 C46.9601314 -0.03986021 52.20378833 -0.04162809 57.44745636 -0.04587364 C58.57043558 -0.04676643 58.57043558 -0.04676643 59.71610124 -0.04767724 C61.23741514 -0.0488891 62.75872903 -0.05010324 64.28004292 -0.05131962 C78.52252089 -0.06217675 92.76497513 -0.06004151 107.00745443 -0.05393478 C120.00656366 -0.04876887 133.00559788 -0.0600157 146.00469229 -0.07903299 C159.38450335 -0.09845565 172.764279 -0.10665955 186.14410424 -0.10290974 C193.642845 -0.10100419 201.14152197 -0.10342174 208.64025116 -0.11762428 C215.0251211 -0.12959578 221.40988798 -0.13087897 227.79475948 -0.11883412 C231.0454297 -0.11298516 234.29587515 -0.11339214 237.54653931 -0.12383652 C268.06818686 -0.21478117 294.11059583 5.33763063 317.33843994 26.26069641 C318.11832275 26.95807922 318.89820557 27.65546204 319.70172119 28.37397766 C336.88294829 44.6056378 347.99211061 68.60689362 349.52572501 92.13380384 C349.59589449 95.0649397 349.61008067 97.99030563 349.59913635 100.92225647 C349.6029619 102.03194676 349.60678745 103.14163704 349.61072892 104.28495431 C349.62097195 107.96930063 349.61708336 111.65348857 349.61309814 115.33784485 C349.61744947 117.99342863 349.62257033 120.64900116 349.62858582 123.30458069 C349.64128429 129.74930369 349.64313254 136.19398493 349.64078555 142.63871834 C349.63899656 147.88238786 349.64076445 153.1260448 349.64500999 158.36971283 C349.64560518 159.11836564 349.64620037 159.86701845 349.6468136 160.63835771 C349.64802546 162.15967161 349.64923959 163.6809855 349.65045597 165.20229939 C349.66131311 179.44477736 349.65917786 193.6872316 349.65307113 207.92971089 C349.64790522 220.92882013 349.65915205 233.92785435 349.67816935 246.92694876 C349.697592 260.30675982 349.7057959 273.68653547 349.7020461 287.06636071 C349.70014055 294.56510147 349.70255809 302.06377844 349.71676064 309.56250763 C349.72873213 315.94737757 349.73001532 322.33214445 349.71797047 328.71701595 C349.71212151 331.96768617 349.71252849 335.21813162 349.72297287 338.46879578 C349.81391752 368.99044333 344.26150572 395.0328523 323.33843994 418.26069641 C322.64105713 419.04057922 321.94367432 419.82046204 321.22515869 420.62397766 C304.99349855 437.80520476 280.99224274 448.91436708 257.46533251 450.44798148 C254.53419665 450.51815096 251.60883072 450.53233714 248.67687988 450.52139282 C247.5671896 450.52521837 246.45749931 450.52904392 245.31418204 450.53298539 C241.62983572 450.54322842 237.94564778 450.53933983 234.2612915 450.53535461 C231.60570772 450.53970594 228.95013519 450.5448268 226.29455566 450.55084229 C219.84983266 450.56354076 213.40515142 450.56538901 206.96041802 450.56304202 C201.71674849 450.56125303 196.47309155 450.56302092 191.22942352 450.56726646 C190.10644431 450.56815925 190.10644431 450.56815925 188.96077864 450.56907007 C187.43946475 450.57028193 185.91815086 450.57149606 184.39683697 450.57271244 C170.154359 450.58356958 155.91190475 450.58143433 141.66942546 450.5753276 C128.67031622 450.57016169 115.671282 450.58140852 102.6721876 450.60042582 C89.29237653 450.61984847 75.91260088 450.62805237 62.53277564 450.62430257 C55.03403488 450.62239701 47.53535791 450.62481456 40.03662872 450.63901711 C33.65175879 450.6509886 27.26699191 450.65227179 20.8821204 450.64022694 C17.63145018 450.63437798 14.38100473 450.63478496 11.13034058 450.64522934 C-19.39130698 450.73617399 -45.43371595 445.18376219 -68.66156006 424.26069641 C-69.83138428 423.21462219 -69.83138428 423.21462219 -71.02484131 422.14741516 C-88.20606841 405.91575502 -99.31523073 381.91449921 -100.84884512 358.38758898 C-100.91901461 355.45645312 -100.93320079 352.53108719 -100.92225647 349.59913635 C-100.92608202 348.48944607 -100.92990756 347.37975578 -100.93384904 346.23643851 C-100.94409207 342.55209219 -100.94020348 338.86790425 -100.93621826 335.18354797 C-100.94056959 332.52796419 -100.94569045 329.87239166 -100.95170593 327.21681213 C-100.96440441 320.77208913 -100.96625266 314.32740789 -100.96390567 307.88267449 C-100.96211668 302.63900496 -100.96388456 297.39534802 -100.96813011 292.15167999 C-100.9687253 291.40302718 -100.96932049 290.65437437 -100.96993371 289.88303511 C-100.97114557 288.36172122 -100.97235971 286.84040733 -100.97357609 285.31909344 C-100.98443322 271.07661547 -100.98229798 256.83416122 -100.97619125 242.59168193 C-100.97102534 229.59257269 -100.98227217 216.59353847 -101.00128946 203.59444407 C-101.02071212 190.214633 -101.02891602 176.83485735 -101.02516621 163.45503211 C-101.02326066 155.95629135 -101.02567821 148.45761438 -101.03988075 140.95888519 C-101.05185225 134.57401526 -101.05313544 128.18924838 -101.04109059 121.80437687 C-101.03524163 118.55370665 -101.03564861 115.3032612 -101.04609299 112.05259705 C-101.13703764 81.53094949 -95.58462584 55.48854052 -74.66156006 32.26069641 C-73.96417725 31.4808136 -73.26679443 30.70093079 -72.54827881 29.89741516 C-53.84286592 10.09771852 -26.9191031 -0.10048299 0 0 Z M-71.97406006 41.94819641 C-90.29223128 65.05681043 -92.97152906 90.87651481 -92.92034912 119.36567688 C-92.92306246 121.90480143 -92.92662532 124.4439252 -92.93096924 126.98304749 C-92.93911404 133.13921528 -92.9379607 139.29531908 -92.93214396 145.45148765 C-92.92760931 150.46011066 -92.92702232 155.46872003 -92.92919159 160.47734451 C-92.92949806 161.19284622 -92.92980452 161.90834793 -92.93012027 162.64553151 C-92.93075979 164.0995256 -92.93140822 165.55351969 -92.93206546 167.00751378 C-92.93775614 180.61283983 -92.93123115 194.21813885 -92.92046472 207.82346047 C-92.91153421 219.46873105 -92.91307959 231.11396172 -92.92230225 242.75923157 C-92.93303387 256.31599938 -92.93720291 269.87274354 -92.93107772 283.429515 C-92.93044069 284.87848226 -92.92981195 286.32744952 -92.92919159 287.77641678 C-92.92888304 288.48913993 -92.92857449 289.20186307 -92.92825659 289.93618389 C-92.92653802 294.93117977 -92.92942664 299.92616049 -92.9341507 304.92115402 C-92.94038447 311.65997251 -92.93587123 318.39870469 -92.92436218 325.13751984 C-92.92173177 327.60166678 -92.92245278 330.06582009 -92.92688751 332.52996445 C-92.97776115 363.68539228 -88.61208808 391.49888263 -66.15374756 414.76948547 C-47.37849232 433.53245324 -22.28345927 442.41278347 3.99217224 442.40786743 C5.05393262 442.41154412 6.11569299 442.41522081 7.20962793 442.41900891 C10.76192894 442.43000798 14.31420065 442.43388324 17.86651611 442.43769836 C20.41634717 442.44396607 22.96617731 442.45061315 25.51600647 442.45761108 C33.16471666 442.47680968 40.8134217 442.48743687 48.46214983 442.49633887 C52.07326608 442.5007316 55.68438088 442.50609598 59.29549599 442.51132774 C71.31659102 442.52833768 83.33768518 442.54282752 95.3587904 442.55007648 C98.4746469 442.55198607 101.59050339 442.55390644 104.70635986 442.55586243 C105.86786439 442.55658804 105.86786439 442.55658804 107.05283365 442.55732831 C119.57105156 442.56561246 132.08917342 442.59092301 144.60734948 442.6234431 C157.48981092 442.65663368 170.37222376 442.67453617 183.25472814 442.67772073 C190.47536734 442.67987516 197.69586662 442.6884655 204.91646385 442.7141819 C211.72010309 442.73835863 218.52348831 442.74163992 225.32716179 442.73142052 C227.81017646 442.73092836 230.29320403 442.73715292 232.77618027 442.75097656 C260.69900923 442.89760274 286.31866106 438.76836002 308.33843994 420.26069641 C309.07836182 419.6664386 309.81828369 419.07218079 310.58062744 418.45991516 C328.21081157 403.72742566 338.53831337 381.08849326 341.14549613 358.52064419 C341.92468278 349.39404341 341.62340767 340.15466335 341.61309814 331.00386047 C341.61745056 328.44827628 341.62263547 325.8926934 341.62858582 323.33711243 C341.64054785 317.14017194 341.643134 310.94329126 341.64078555 304.7463415 C341.63899527 299.7034099 341.64076717 294.66049138 341.64500999 289.61756134 C341.64590278 288.53684886 341.64590278 288.53684886 341.6468136 287.43430381 C341.64802548 285.97016718 341.64923961 284.50603055 341.65045597 283.04189393 C341.66130867 269.34017761 341.65917996 255.63848596 341.65307113 241.93676826 C341.64790551 229.43631951 341.65915207 216.93594876 341.67816935 204.43551543 C341.69760064 191.56304317 341.70579441 178.69060772 341.7020461 165.81812072 C341.70014186 158.6060846 341.70254508 151.39411482 341.71676064 144.18209076 C341.73000329 137.39563363 341.727343 130.60935685 341.71434975 123.82289124 C341.71199627 121.34345699 341.71467412 118.86401162 341.72297287 116.38459015 C341.80930131 88.5693787 338.04612256 63.22188905 319.33843994 41.26069641 C318.74547119 40.52335266 318.15250244 39.78600891 317.54156494 39.02632141 C302.82221768 21.3874342 280.16137861 11.06026174 257.59838772 8.45364022 C248.47178694 7.67445357 239.23240688 7.97572868 230.081604 7.98603821 C227.52601981 7.98168579 224.97043693 7.97650088 222.41485596 7.97055054 C216.21791547 7.95858851 210.02103479 7.95600235 203.82408503 7.9583508 C198.78115343 7.96014108 193.73823491 7.95836918 188.69530487 7.95412636 C187.97482988 7.95353117 187.2543549 7.95293598 186.51204734 7.95232276 C185.04791071 7.95111087 183.58377408 7.94989674 182.11963746 7.94868038 C168.41792114 7.93782768 154.71622949 7.93995639 141.01451179 7.94606522 C128.51406304 7.95123084 116.0136923 7.93998428 103.51325896 7.92096701 C90.6407867 7.90153572 77.76835125 7.89334195 64.89586425 7.89709026 C57.68382813 7.89899449 50.47185835 7.89659127 43.25983429 7.88237572 C36.47337716 7.86913306 29.68710038 7.87179336 22.90063477 7.88478661 C20.42120052 7.88714008 17.94175515 7.88446223 15.46233368 7.87616348 C-19.03999243 7.76908063 -48.48013305 15.51752853 -71.97406006 41.94819641 Z " fill="#2D368C" transform="translate(131.66156005859375,30.739303588867188)"/>
<path d="M0 0 C0.93864899 -0.00525696 1.87729797 -0.01051392 2.84439087 -0.01593018 C5.94794342 -0.02913631 9.05098322 -0.02038906 12.15454102 -0.01025391 C14.31161091 -0.01227463 16.46868013 -0.01518606 18.62574768 -0.01895142 C23.14753725 -0.02337575 27.66914906 -0.01694071 32.19091797 -0.00292969 C37.98603963 0.01415187 43.78074417 0.00432804 49.57585049 -0.01364708 C54.03081908 -0.02449062 58.4856889 -0.02103574 62.94066048 -0.0132637 C65.07729199 -0.01126275 67.21393248 -0.01371729 69.35055351 -0.02070236 C72.33811039 -0.02832491 75.32499328 -0.01670053 78.3125 0 C79.19526108 -0.00607269 80.07802216 -0.01214539 80.98753357 -0.0184021 C85.68859628 0.03025835 88.99106087 0.21122939 92.72094727 3.38818359 C96.39236342 7.74209677 96.13093495 11.98060883 96.06152344 17.40112305 C96.06218056 18.74821098 96.06218056 18.74821098 96.06285095 20.12251282 C96.06076573 23.08238685 96.0374471 26.04169011 96.01391602 29.00146484 C96.00831912 31.05697826 96.00404946 33.11249568 96.00105286 35.16801453 C95.98961151 40.57185969 95.96015027 45.97546204 95.92694092 51.37921143 C95.89622483 56.89584061 95.88254422 62.41250912 95.86743164 67.92919922 C95.83528003 78.74896722 95.78409211 89.56855519 95.72094727 100.38818359 C96.71457275 99.77692627 97.70819824 99.16566895 98.73193359 98.53588867 C100.06795673 97.72207045 101.40414738 96.90852721 102.74047852 96.09521484 C103.71700378 95.49296082 103.71700378 95.49296082 104.71325684 94.87854004 C128.02361818 80.74253778 158.76310075 77.41738533 185.12329102 83.34912109 C207.25088112 89.73993431 225.47892465 101.6801695 236.84985352 122.14990234 C250.4867602 147.67004315 250.19570048 175.42988698 250.15685534 203.62852168 C250.15372838 207.14079355 250.15989248 210.65302653 250.16589409 214.1652928 C250.17983344 222.44429512 250.17845989 230.72319395 250.16699219 239.00219727 C250.1554476 247.52489645 250.16971628 256.04728327 250.19638866 264.56994146 C250.21853655 271.92413566 250.22518727 279.27823166 250.21931225 286.63245684 C250.21594818 291.00982319 250.21832453 295.38698807 250.23556328 299.7643261 C250.25102202 303.86620181 250.2470893 307.96761034 250.22825813 312.06946754 C250.2245731 313.57148016 250.22767831 315.07352744 250.23814392 316.57550812 C250.25135884 318.62879291 250.23980645 320.68053057 250.22215271 322.73374939 C250.22194343 323.88083846 250.22173414 325.02792753 250.22151852 326.20977688 C249.49259068 330.8381472 247.14021121 333.81799148 244.04989624 337.23693848 C240.30302605 339.08908984 236.58092755 338.82178658 232.45776367 338.80810547 C231.52072098 338.81657501 230.58367828 338.82504456 229.61824036 338.83377075 C226.51952554 338.8571764 223.42130631 338.85816198 220.32250977 338.85693359 C218.16783448 338.8640335 216.01316109 338.87173225 213.85848999 338.88000488 C209.34090928 338.89345826 204.82350335 338.89501479 200.3059082 338.88916016 C194.51966325 338.8832663 188.73425799 338.91383925 182.94817543 338.95427704 C178.49744151 338.98014165 174.04691002 338.98303249 169.5961113 338.97938538 C167.46307644 338.98107808 165.33003238 338.99073497 163.19707108 339.00852966 C160.21178471 339.03069213 157.22820101 339.02103044 154.24291992 339.00341797 C153.36375412 339.01668121 152.48458832 339.02994446 151.57878113 339.04360962 C147.35966199 338.98584155 144.56059277 338.70359044 141.18832397 336.03723145 C137.71696222 332.31027587 137.59533791 329.72245373 137.58291626 324.81773376 C137.57746292 323.65849396 137.57200958 322.49925415 137.56639099 321.30488586 C137.56534866 320.03162949 137.56430634 318.75837311 137.56323242 317.4465332 C137.55856332 316.09287349 137.5534196 314.73921534 137.5478363 313.38555908 C137.53655657 310.46851181 137.52812156 307.55147475 137.52171707 304.63441277 C137.51102585 300.01490872 137.49077574 295.39547764 137.46859741 290.77601624 C137.40671822 277.63904177 137.35274141 264.50207087 137.31958008 251.36499023 C137.30118834 244.11080254 137.27219214 236.85673649 137.23157537 229.6026383 C137.21057476 225.76706863 137.19505808 221.93165183 137.1927681 218.09602165 C137.19060797 214.48193648 137.17460104 210.86816908 137.14837837 207.25418091 C137.13785147 205.30954276 137.14191769 203.36484237 137.14656067 201.42018127 C137.06751893 193.01951182 136.7258066 184.97935694 131.15844727 178.32568359 C125.89776351 174.14411445 120.21144009 174.97670498 113.72094727 175.38818359 C108.57437578 176.38282241 105.19051299 179.34423802 102.00610352 183.36083984 C97.77014007 190.04310436 96.60009203 198.17722149 96.58964539 205.95994568 C96.58563721 207.04350342 96.58162903 208.12706116 96.57749939 209.24345398 C96.57802811 210.41713028 96.57855682 211.59080658 96.57910156 212.80004883 C96.57388992 214.6718129 96.57388992 214.6718129 96.568573 216.58139038 C96.56122967 219.28723595 96.55555007 221.99303272 96.55228233 224.69888115 C96.54634817 228.98175418 96.52978609 233.26454519 96.51094055 237.54737854 C96.50460406 239.01640601 96.49827843 240.48543353 96.49196339 241.9544611 C96.48879758 242.68989427 96.48563176 243.42532744 96.48237002 244.18304646 C96.44036266 254.14700042 96.40731093 264.11091448 96.39501953 274.07495117 C96.38663101 280.80618168 96.36411576 287.53720705 96.32566386 294.26833493 C96.30593838 297.82603626 96.29348705 301.38343122 96.29849815 304.94119072 C96.30402085 308.90996957 96.27870729 312.87823118 96.25097656 316.84692383 C96.26087868 318.60440193 96.26087868 318.60440193 96.27098083 320.39738464 C96.19629388 326.90528474 95.78210683 331.18335275 91.72094727 336.38818359 C88.94580152 338.09913204 86.83681542 338.64244081 83.59780884 338.67579651 C82.7848082 338.68866196 81.97180756 338.7015274 81.13417053 338.71478271 C79.80934914 338.72049286 79.80934914 338.72049286 78.45776367 338.72631836 C77.52072098 338.73785446 76.58367828 338.74939056 75.61824036 338.76127625 C72.51964655 338.79557574 69.42125169 338.8140818 66.32250977 338.82958984 C65.26350842 338.83649275 64.20450706 338.84339565 63.11341476 338.85050774 C57.51091105 338.88633515 51.908508 338.90988038 46.3059082 338.92358398 C40.51945437 338.94014836 34.73421905 338.99860053 28.94817543 339.06672764 C24.49745839 339.11149457 20.04703419 339.125077 15.5961113 339.13020134 C13.46302116 339.13809871 11.32994073 339.15775556 9.19707108 339.18942451 C6.21138738 339.23083817 3.2287919 339.22804336 0.24291992 339.21459961 C-0.63624588 339.23662445 -1.51541168 339.25864929 -2.42121887 339.28134155 C-5.9964321 339.22669419 -8.33644908 339.1597162 -11.16472244 336.84473991 C-14.8602681 332.61907216 -16.40321075 329.80722406 -16.4104805 324.16128922 C-16.41432164 323.04632073 -16.41816279 321.93135224 -16.42212033 320.78259683 C-16.42125385 319.54741177 -16.42038737 318.31222672 -16.41949463 317.03961182 C-16.42246575 315.73539961 -16.42543687 314.4311874 -16.42849803 313.0874536 C-16.43658697 309.45504844 -16.43835865 305.82266302 -16.4390955 302.19024992 C-16.44094279 298.27738124 -16.44848852 294.36452289 -16.45523071 290.45166016 C-16.46882842 281.88966673 -16.47484111 273.32767797 -16.47924137 264.76567554 C-16.4820016 259.42172203 -16.48623857 254.07777034 -16.49074554 248.73381805 C-16.50294053 233.9446588 -16.5132391 219.155501 -16.51662064 204.36633682 C-16.5168402 203.41928084 -16.51705977 202.47222485 -16.51728599 201.4964702 C-16.5176134 200.0724386 -16.5176134 200.0724386 -16.51794744 198.61963868 C-16.51839091 196.6958073 -16.51883747 194.77197591 -16.51928711 192.84814453 C-16.51950854 191.89385267 -16.51972997 190.93956081 -16.51995811 189.95635101 C-16.5239063 174.4925785 -16.54135995 159.0288531 -16.56464663 143.56509879 C-16.58834919 127.69737049 -16.600822 111.82966584 -16.60198855 95.96191955 C-16.60290598 87.04929652 -16.60867516 78.13673487 -16.62680817 69.22412872 C-16.64219445 61.63467401 -16.64733838 54.04529962 -16.63907006 46.45583227 C-16.6351582 42.58270489 -16.63611914 38.70973934 -16.65012741 34.83663177 C-16.66516997 30.63920039 -16.65701567 26.44213509 -16.64654541 22.24468994 C-16.65460181 21.01842777 -16.66265822 19.79216561 -16.67095876 18.52874398 C-16.63119293 11.73762066 -16.2947987 6.86012866 -11.67149353 1.53744507 C-7.87396187 -0.28678266 -4.1589842 -0.02854504 0 0 Z M-7.27905273 9.38818359 C-7.37724042 11.09180978 -7.4046086 12.79954339 -7.40489388 14.5059967 C-7.40750162 15.62205764 -7.41010937 16.73811857 -7.41279614 17.88799953 C-7.41056542 19.12950803 -7.4083347 20.37101652 -7.40603638 21.65014648 C-7.40759637 22.9570321 -7.40915636 24.26391771 -7.41076362 25.61040592 C-7.4149615 29.25472819 -7.4128642 32.89902448 -7.4097774 36.54334688 C-7.40752538 40.46704064 -7.41100192 44.39072976 -7.41375732 48.31442261 C-7.41821614 56.00758125 -7.41723806 63.70073016 -7.41434468 71.39388919 C-7.41209109 77.64338178 -7.41177794 83.89287163 -7.4128685 90.1423645 C-7.41302173 91.03005589 -7.41317497 91.91774727 -7.41333284 92.83233839 C-7.41365255 94.63537113 -7.41397676 96.43840387 -7.41430543 98.2414366 C-7.41716055 115.16926749 -7.4138727 132.09709297 -7.40850507 149.02492297 C-7.404037 163.56625995 -7.40481292 178.10758895 -7.40942383 192.64892578 C-7.41476903 209.51402512 -7.41688586 226.37911971 -7.41381156 243.24421978 C-7.413493 245.04081408 -7.41317863 246.83740838 -7.4128685 248.63400269 C-7.41271422 249.51808227 -7.41255995 250.40216186 -7.412401 251.31303173 C-7.41153568 257.5587968 -7.41299904 263.80455888 -7.41534805 270.05032349 C-7.41814565 277.6563957 -7.41740865 285.26245758 -7.41206731 292.8685286 C-7.40942975 296.75312637 -7.40842615 300.63770688 -7.41171646 304.52230453 C-7.41522136 308.7236251 -7.41105137 312.92490169 -7.40603638 317.1262207 C-7.4082671 318.3677292 -7.41049782 319.60923769 -7.41279614 320.88836765 C-7.41018839 322.00442859 -7.40758065 323.12048952 -7.40489388 324.27037048 C-7.40473152 325.24153274 -7.40456917 326.21269499 -7.4044019 327.2132864 C-7.5222301 329.36675591 -7.5222301 329.36675591 -6.27905273 330.38818359 C-3.42887976 330.49406149 -0.60280905 330.53496094 2.24804688 330.53344727 C3.14230881 330.53680588 4.03657074 330.54016449 4.95793152 330.54362488 C7.92973194 330.55316517 10.90147621 330.55507952 13.87329102 330.55615234 C15.92973352 330.55936275 17.98617579 330.56272665 20.0426178 330.5662384 C24.35947194 330.57223736 28.67630604 330.57407752 32.99316406 330.57348633 C38.53635056 330.57338465 44.07940912 330.58703892 49.62256527 330.60425854 C53.87151179 330.61535369 58.12042714 330.6174063 62.36938667 330.6168766 C64.41360477 330.6180604 66.45782359 330.62250438 68.50202751 330.63020897 C71.35626165 330.63995903 74.21021488 330.63715066 77.06445312 330.63110352 C77.91595947 330.63672302 78.76746582 330.64234253 79.64477539 330.64813232 C84.15731574 330.82198496 84.15731574 330.82198496 87.72094727 328.38818359 C88.02404356 326.07777961 88.02404356 326.07777961 87.97250366 323.35800171 C87.97788651 322.29294907 87.98326935 321.22789642 87.98881531 320.13056946 C87.98469131 318.95665146 87.98056732 317.78273346 87.97631836 316.57324219 C87.97993881 315.34044022 87.98355927 314.10763824 87.98728943 312.83747864 C87.99420106 310.15006142 87.99756619 307.46289435 87.99534225 304.77549362 C87.99250712 300.5114439 88.00687414 296.2475597 88.02432251 291.98355103 C88.07131283 279.85575919 88.09524528 267.72797643 88.10180664 255.60009766 C88.10558125 248.90581348 88.12381166 242.21171478 88.156901 235.51751006 C88.17367092 231.98124226 88.1830276 228.44531151 88.17396164 224.90900803 C88.08139582 185.35438793 88.08139582 185.35438793 98.72094727 174.38818359 C107.74368046 167.12673736 116.47317081 166.36868891 127.72094727 167.38818359 C133.70017379 168.88942411 137.28916713 172.28953883 140.72094727 177.38818359 C143.6036002 183.52739006 144.83814438 189.47859728 144.87243652 196.25970459 C144.88078018 197.43470016 144.88912384 198.60969574 144.89772034 199.82029724 C144.90190475 201.10050247 144.90608917 202.3807077 144.91040039 203.69970703 C144.91834789 205.0682653 144.92673624 206.43682107 144.93553162 207.80537415 C144.95355061 210.74640931 144.96857927 213.68743912 144.98130798 216.62850189 C145.00155628 221.27509607 145.02920193 225.92162819 145.0579834 230.56817627 C145.12311523 241.26453618 145.17867335 251.96094176 145.23397064 262.65735626 C145.28478388 272.47221932 145.33760309 282.28705963 145.39849615 292.10186601 C145.42689822 296.72542031 145.45047373 301.348967 145.47042084 305.97256517 C145.48376798 308.84064577 145.50118138 311.70869096 145.51973152 314.57674217 C145.53123936 316.55053945 145.53776321 318.52436379 145.54417419 320.4981842 C145.55251785 321.66190048 145.56086151 322.82561676 145.56945801 324.02459717 C145.57461174 325.04221508 145.57976547 326.05983299 145.58507538 327.10828781 C145.4658042 329.35430339 145.4658042 329.35430339 146.72094727 330.38818359 C149.60700742 330.48875051 152.46917301 330.52433734 155.35571289 330.51757812 C156.26133469 330.51933044 157.16695648 330.52108276 158.10002136 330.52288818 C161.10909919 330.52730813 164.11811878 330.52436821 167.12719727 330.52099609 C169.20845552 330.52166909 171.2897137 330.52263908 173.37097168 330.52389526 C177.73910264 330.52537243 182.1072132 330.52321708 186.4753418 330.51855469 C192.0880928 330.51285739 197.70079598 330.5161363 203.31354523 330.52212715 C207.61306115 330.52573226 211.91256565 330.52459441 216.21208191 330.52199936 C218.28224188 330.52132995 220.35240287 330.522159 222.42256165 330.52447891 C225.31046313 330.52700461 228.19828604 330.52316602 231.08618164 330.51757812 C231.950634 330.51960236 232.81508636 330.52162659 233.70573425 330.52371216 C237.52163879 330.88375375 237.52163879 330.88375375 240.72094727 329.38818359 C240.82884105 327.27359834 240.86509186 325.15535372 240.87484741 323.03804016 C240.87922967 322.36667139 240.88361192 321.69530261 240.88812697 321.00358933 C240.90156303 318.73635827 240.90770507 316.46916612 240.91381836 314.2019043 C240.92171689 312.58229902 240.92998569 310.96269551 240.93859863 309.34309387 C240.96489432 304.00006811 240.98015499 298.65703432 240.99438477 293.31396484 C240.99974538 291.47043541 241.00512289 289.62690603 241.01051712 287.78337669 C241.0321758 280.09975139 241.05090164 272.41612821 241.06213951 264.73248005 C241.07829824 253.75757326 241.11124281 242.78302518 241.16854036 231.80825359 C241.20750552 224.07716818 241.22680455 216.34617751 241.23206007 208.61499661 C241.23568356 204.0086995 241.24737557 199.40278423 241.28016281 194.79659462 C241.49328798 163.30545722 240.21394875 134.04276028 217.53344727 109.70068359 C201.35831451 94.21797947 179.08859614 88.82920943 157.27124023 88.96875 C134.72362346 89.56811213 113.02267845 96.38746461 95.64282227 111.15380859 C93.20224299 112.72133512 91.56913572 112.48051305 88.72094727 112.38818359 C88.71286041 111.11476105 88.70477356 109.8413385 88.69644165 108.52932739 C88.61908561 96.55091726 88.53137335 84.5726222 88.43342018 72.59436226 C88.38339245 66.43565261 88.33706312 60.27696066 88.29907227 54.11816406 C88.26230114 48.17885365 88.21596378 42.23968905 88.16288376 36.30050278 C88.14429623 34.03023705 88.12920455 31.75994002 88.1176033 29.48962784 C88.10081526 26.31910394 88.0717986 23.14891719 88.03979492 19.97851562 C88.03763474 19.03193085 88.03547455 18.08534607 88.0332489 17.1100769 C88.02208542 16.24908386 88.01092194 15.38809082 87.99942017 14.50100708 C87.99388941 13.75066759 87.98835865 13.0003281 87.98266029 12.22725105 C87.8734518 10.14040087 87.8734518 10.14040087 85.72094727 8.38818359 C82.80394385 8.19464995 79.98221797 8.12600791 77.06445312 8.14526367 C76.16843887 8.14336533 75.27242462 8.14146698 74.34925842 8.13951111 C71.37801453 8.13579662 68.4070133 8.14651633 65.43579102 8.15771484 C63.37838266 8.15890628 61.32097375 8.15935988 59.26356506 8.15910339 C54.94846195 8.16066938 50.63344166 8.1689684 46.31835938 8.18237305 C40.77401214 8.19937369 35.22975595 8.20318716 29.6853857 8.20242786 C25.43647892 8.20269915 21.18759222 8.20817353 16.93869209 8.21542931 C14.89365351 8.21862191 12.84861264 8.22058475 10.8035717 8.22132301 C7.95169023 8.22347973 5.09990734 8.23220909 2.24804688 8.24291992 C1.3945163 8.24246674 0.54098572 8.24201355 -0.33840942 8.24154663 C-4.11522234 7.89610397 -4.11522234 7.89610397 -7.27905273 9.38818359 Z " fill="#313D91" transform="translate(139.279052734375,86.61181640625)"/>
</svg>
